<svg width="576" height="576" xmlns="http://www.w3.org/2000/svg">
 <!-- Font Awesome Free 5.15.1 by @fontawesome - https://fontawesome.com License - https://fontawesome.com/license/free (Icons: CC BY 4.0, Fonts: SIL OFL 1.1, Code: MIT License) -->

 <g>
  <title>Layer 1</title>
  <path stroke-width="0" id="svg_1" d="m464,31.98749l-352,0c-4,0 -7.8,2 -10,5.4l-100,147.2c-2.9,4.4 -2.6,10.2 0.7,14.2l276,340.8c4.8,5.9 13.8,5.9 18.6,0l276,-340.8c3.3,-4.1 3.6,-9.8 0.7,-14.2l-99.9,-147.2c-2.3,-3.4 -6,-5.4 -10.1,-5.4zm-19.3,48l63.3,96l-68.4,0l-51.7,-96l56.8,0zm-202.1,0l90.7,0l51.7,96l-194,0l51.6,-96zm-111.3,0l56.8,0l-51.7,96l-68.4,0l63.3,-96zm-43,144l51.4,0l68.3,160l-119.7,-160zm102.9,0l193.6,0l-96.8,243.3l-96.8,-243.3zm176.8,160l68.2,-160l51.4,0l-119.6,160z"/>
 </g>
</svg>